<svg xmlns="http://www.w3.org/2000/svg" xmlns:xlink="http://www.w3.org/1999/xlink" fill="none" version="1.1" width="32" height="32" viewBox="0 0 32 32"><defs><clipPath id="master_svg0_10_01437"><rect x="0" y="0" width="32" height="32" rx="0"/></clipPath></defs><g clip-path="url(#master_svg0_10_01437)"><g><path d="M29.338575,15.9999259765625Q29.338575,16.327225976562502,29.322475,16.6542259765625Q29.306375,16.981125976562502,29.274375,17.3068259765625Q29.242275,17.6326259765625,29.194275,17.9563259765625Q29.146175,18.280125976562502,29.082375,18.6011259765625Q29.018475,18.9222259765625,28.938975,19.2397259765625Q28.859475,19.5572259765625,28.764375,19.8704259765625Q28.669375,20.1836259765625,28.559175,20.4918259765625Q28.448875,20.8000259765625,28.323575,21.1024259765625Q28.198375,21.4048259765625,28.058375,21.7007259765625Q27.918475,21.9966259765625,27.764175,22.2852259765625Q27.609875,22.5739259765625,27.441575,22.8546259765625Q27.273275,23.1354259765625,27.091475,23.4075259765625Q26.909575,23.6797259765625,26.714675,23.9426259765625Q26.519675,24.2055259765625,26.311975,24.4585259765625Q26.104375,24.7115259765625,25.884575,24.9541259765625Q25.664775,25.1966259765625,25.433275,25.4280259765625Q25.201875,25.6595259765625,24.959375,25.8793259765625Q24.716775,26.0991259765625,24.463775,26.3067259765625Q24.210775,26.5144259765625,23.947875,26.7094259765625Q23.684975,26.9043259765625,23.412775,27.0862259765625Q23.140675,27.2680259765625,22.859875,27.4363259765625Q22.579175,27.6046259765625,22.290475,27.7589259765625Q22.001875,27.9132259765625,21.705975,28.0531259765625Q21.410075,28.1931259765625,21.107675,28.3183259765625Q20.805275,28.4436259765625,20.497075,28.5539259765625Q20.188875,28.6641259765625,19.875675,28.7591259765625Q19.562475,28.8542259765625,19.244975,28.9337259765625Q18.927475,29.0132259765625,18.606375,29.0771259765625Q18.285375000000002,29.1409259765625,17.961575,29.1890259765625Q17.637875,29.2370259765625,17.312075,29.2691259765625Q16.986375000000002,29.3011259765625,16.659475,29.3172259765625Q16.332475000000002,29.3333259765625,16.005175,29.3333259765625Q15.677875,29.3333259765625,15.350975,29.3172259765625Q15.024075,29.3011259765625,14.698275,29.2691259765625Q14.372575,29.2370259765625,14.048775,29.1890259765625Q13.725075,29.1409259765625,13.403975,29.0771259765625Q13.082975,29.0132259765625,12.765475,28.9337259765625Q12.447965,28.8542259765625,12.134745,28.7591259765625Q11.821525,28.6641259765625,11.513345,28.5539259765625Q11.205165,28.4436259765625,10.902765,28.3183259765625Q10.600365,28.1931259765625,10.304475,28.0531259765625Q10.008585,27.9132259765625,9.719915,27.7589259765625Q9.431255,27.6046259765625,9.150504999999999,27.4363259765625Q8.869755,27.2680259765625,8.597605,27.0862259765625Q8.325455,26.9043259765625,8.062555,26.7094259765625Q7.799645,26.5144259765625,7.546635,26.3067259765625Q7.293615,26.0991259765625,7.051085,25.8793259765625Q6.808565,25.6595259765625,6.577115,25.4280259765625Q6.345675,25.1966259765625,6.125855,24.9541259765625Q5.906045000000001,24.7115259765625,5.698405,24.4585259765625Q5.490755,24.2055259765625,5.295775,23.9426259765625Q5.100795,23.6797259765625,4.918945,23.4075259765625Q4.737105,23.1354259765625,4.568825,22.8546259765625Q4.400555,22.5739259765625,4.246255,22.2852259765625Q4.091965,21.9966259765625,3.9520150000000003,21.7007259765625Q3.812075,21.4048259765625,3.686815,21.1024259765625Q3.561556,20.8000259765625,3.4512869999999998,20.4918259765625Q3.341018,20.1836259765625,3.246004,19.8704259765625Q3.150989,19.5572259765625,3.071458,19.2397259765625Q2.991927,18.9222259765625,2.928071,18.6011259765625Q2.864215,18.280125976562502,2.816188,17.9563259765625Q2.7681611,17.6326259765625,2.7360786,17.3068259765625Q2.7039962,16.981125976562502,2.6879356,16.6542259765625Q2.671875,16.327225976562502,2.671875,15.9999259765625Q2.671875,15.6726259765625,2.6879356,15.3457259765625Q2.7039962,15.0188259765625,2.7360786,14.6930259765625Q2.7681611,14.3673259765625,2.816188,14.0435259765625Q2.864215,13.7198259765625,2.928071,13.3987259765625Q2.991927,13.0777259765625,3.071458,12.7602259765625Q3.150989,12.4427159765625,3.246004,12.1294959765625Q3.341018,11.8162759765625,3.4512869999999998,11.5080959765625Q3.561556,11.1999159765625,3.686815,10.8975159765625Q3.812075,10.5951159765625,3.9520150000000003,10.2992259765625Q4.091965,10.0033359765625,4.246255,9.7146659765625Q4.400555,9.4260059765625,4.568825,9.145255976562499Q4.737105,8.8645059765625,4.918945,8.5923559765625Q5.100795,8.3202059765625,5.295775,8.0573059765625Q5.490755,7.7943959765625,5.698405,7.5413859765625Q5.906045000000001,7.2883659765625,6.125855,7.0458359765625Q6.345675,6.8033159765625,6.577115,6.5718659765625Q6.808565,6.3404259765625,7.051085,6.1206059765625Q7.293615,5.900795976562501,7.546635,5.6931559765625Q7.799645,5.4855059765625,8.062555,5.2905259765625Q8.325455,5.0955459765625,8.597605,4.9136959765625Q8.869755,4.7318559765625,9.150504999999999,4.5635759765625Q9.431255,4.3953059765625,9.719915,4.2410059765625Q10.008585,4.0867159765625,10.304475,3.9467659765625003Q10.600365,3.8068259765625,10.902765,3.6815659765625Q11.205165,3.5563069765625,11.513345,3.4460379765624998Q11.821525,3.3357689765625,12.134745,3.2407549765625Q12.447965,3.1457399765625,12.765475,3.0662089765625Q13.082975,2.9866779765625,13.403975,2.9228219765625Q13.725075,2.8589659765625,14.048775,2.8109389765625Q14.372575,2.7629120765625,14.698275,2.7308295765625Q15.024075,2.6987471765625,15.350975,2.6826865765625Q15.677875,2.6666259765625,16.005175,2.6666259765625Q16.332475000000002,2.6666259765625,16.659475,2.6826865765625Q16.986375000000002,2.6987471765625,17.312075,2.7308295765625Q17.637875,2.7629120765625,17.961575,2.8109389765625Q18.285375000000002,2.8589659765625,18.606375,2.9228219765625Q18.927475,2.9866779765625,19.244975,3.0662089765625Q19.562475,3.1457399765625,19.875675,3.2407549765625Q20.188875,3.3357689765625,20.497075,3.4460379765624998Q20.805275,3.5563069765625,21.107675,3.6815659765625Q21.410075,3.8068259765625,21.705975,3.9467659765625003Q22.001875,4.0867159765625,22.290475,4.2410059765625Q22.579175,4.3953059765625,22.859875,4.5635759765625Q23.140675,4.7318559765625,23.412775,4.9136959765625Q23.684975,5.0955459765625,23.947875,5.2905259765625Q24.210775,5.4855059765625,24.463775,5.6931559765625Q24.716775,5.900795976562501,24.959375,6.1206059765625Q25.201875,6.3404259765625,25.433275,6.5718659765625Q25.664775,6.8033159765625,25.884575,7.0458359765625Q26.104375,7.2883659765625,26.311975,7.5413859765625Q26.519675,7.7943959765625,26.714675,8.0573059765625Q26.909575,8.3202059765625,27.091475,8.5923559765625Q27.273275,8.8645059765625,27.441575,9.145255976562499Q27.609875,9.4260059765625,27.764175,9.7146659765625Q27.918475,10.0033359765625,28.058375,10.2992259765625Q28.198375,10.5951159765625,28.323575,10.8975159765625Q28.448875,11.1999159765625,28.559175,11.5080959765625Q28.669375,11.8162759765625,28.764375,12.1294959765625Q28.859475,12.4427159765625,28.938975,12.7602259765625Q29.018475,13.0777259765625,29.082375,13.3987259765625Q29.146175,13.7198259765625,29.194275,14.0435259765625Q29.242275,14.3673259765625,29.274375,14.6930259765625Q29.306375,15.0188259765625,29.322475,15.3457259765625Q29.338575,15.6726259765625,29.338575,15.9999259765625Z" fill="#000000" fill-opacity="1"/><path d="M6.223565,6.2183159765625Q2.171875,10.2699959765625,2.171875,15.9999259765625Q2.171875,21.7299259765625,6.223565,25.7816259765625Q10.275255,29.8333259765625,16.005175,29.8333259765625Q21.735175,29.8333259765625,25.786875,25.7816259765625Q29.838575,21.7299259765625,29.838575,15.9999259765625Q29.838575,10.2699959765625,25.786875,6.2183159765625Q21.735175,2.1666259765625,16.005175,2.1666259765625Q10.275245,2.1666259765625,6.223565,6.2183159765625ZM6.930675,25.0745259765625Q3.171875,21.3157259765625,3.171875,15.9999259765625Q3.171875,10.6842159765625,6.930675,6.9254259765625Q10.689465,3.1666259765625,16.005175,3.1666259765625Q21.320975,3.1666259765625,25.079775,6.9254259765625Q28.838575,10.6842059765625,28.838575,15.9999259765625Q28.838575,21.3157259765625,25.079775,25.0745259765625Q21.320975,28.8333259765625,16.005175,28.8333259765625Q10.689465,28.8333259765625,6.930675,25.0745259765625Z" fill-rule="evenodd" fill="#000000" fill-opacity="1"/></g><g><path d="M15,9.6666259765625L15,10.6666259765625L15,21.3333259765625L15,22.3333259765625L17,22.3333259765625L17,21.3333259765625L17,10.6666259765625L17,9.6666259765625L15,9.6666259765625Z" fill-rule="evenodd" fill="#FFFFFF" fill-opacity="1"/></g><g><path d="M9.671875,17L10.671875,17L21.338575,17L22.338575,17L22.338575,15L21.338575,15L10.671875,15L9.671875,15L9.671875,17Z" fill-rule="evenodd" fill="#FFFFFF" fill-opacity="1"/></g></g></svg>