<svg xmlns="http://www.w3.org/2000/svg" xmlns:xlink="http://www.w3.org/1999/xlink" fill="none" version="1.1" width="20" height="20" viewBox="0 0 20 20"><defs><clipPath id="master_svg0_10_01593"><rect x="0" y="0" width="20" height="20" rx="0"/></clipPath></defs><g clip-path="url(#master_svg0_10_01593)"><g><path d="M9.98958,18.333448046875C12.29075,18.333448046875,14.37405,17.400648046875,15.88215,15.892648046875C17.39015,14.384548046875,18.32295,12.301248046875,18.32295,10.000078046875C18.32295,7.698918046875,17.39015,5.615578046875,15.88215,4.107528046875C14.37405,2.599490046875,12.29075,1.666748046875,9.98958,1.666748046875C7.68842,1.666748046875,5.60508,2.599490046875,4.09703,4.107528046875C2.588992,5.615578046875,1.65625,7.698918046875,1.65625,10.000078046875C1.65625,12.301248046875,2.588992,14.384548046875,4.09703,15.892648046875C5.60508,17.400648046875,7.68842,18.333448046875,9.98958,18.333448046875Z" fill="#3578FF" fill-opacity="1"/></g><g><path d="M14.5098,7.853553Q14.58013,7.783227,14.61819,7.691342Q14.65625,7.5994561,14.65625,7.5Q14.65625,7.4507543,14.64664,7.4024549Q14.63703,7.354155,14.61819,7.308658Q14.59934,7.263161,14.57198,7.222215Q14.54462,7.181269,14.5098,7.146447Q14.47498,7.111625,14.43403,7.084265Q14.39309,7.056906,14.34759,7.03806Q14.30209,7.019215,14.25379,7.009607Q14.2055,7,14.15625,7Q14.05679,7,13.96491,7.03806Q13.87302,7.07612,13.8027,7.146446L13.802430000000001,7.146719L9.15625,11.79289L7.009803,9.64645Q6.939477,9.57612,6.847592,9.53806Q6.7557062,9.5,6.65625,9.5Q6.6070043,9.5,6.5587049,9.50961Q6.510405,9.519210000000001,6.464908,9.53806Q6.419411,9.55691,6.378465,9.58426Q6.337519,9.61162,6.302697,9.64645Q6.267875,9.68127,6.240515,9.72221Q6.213156,9.76316,6.19431,9.80866Q6.175465,9.85416,6.165857,9.90245Q6.15625,9.95075,6.15625,10Q6.15625,10.09946,6.19431,10.19134Q6.23237,10.28323,6.302697,10.35355L6.30291,10.35377L8.8027,12.85355Q8.83752,12.88837,8.87847,12.91573Q8.91941,12.94309,8.96491,12.96194Q9.01041,12.98078,9.05871,12.99039Q9.107,13,9.15625,13Q9.2055,13,9.2538,12.99039Q9.30209,12.98078,9.34759,12.96194Q9.39309,12.94309,9.43404,12.91573Q9.47498,12.88837,9.5098,12.85355L14.5098,7.853553L14.5098,7.853553Z" fill-rule="evenodd" fill="#FFFFFF" fill-opacity="1"/></g></g></svg>